<?xml version="1.0" encoding="UTF-8" standalone="yes"?><svg xmlns="http://www.w3.org/2000/svg" xmlns:xlink="http://www.w3.org/1999/xlink" height="1037px" style="width:606px;height:1037px;" version="1.1" viewBox="0 0 606 1037" width="606px"><defs><filter height="300%" id="f1" width="300%" x="-1" y="-1"><feGaussianBlur result="blurOut" stdDeviation="2.0"/><feColorMatrix in="blurOut" result="blurOut2" type="matrix" values="0 0 0 0 0 0 0 0 0 0 0 0 0 0 0 0 0 0 .4 0"/><feOffset dx="4.0" dy="4.0" in="blurOut2" result="blurOut3"/><feBlend in="SourceGraphic" in2="blurOut3" mode="normal"/></filter></defs><g><rect fill="#FEFECE" filter="url(#f1)" height="48" style="stroke: #A80036; stroke-width: 1.5;" width="117" x="254" y="8"/><ellipse cx="269" cy="24" fill="#ADD1B2" rx="11" ry="11" style="stroke: #A80036; stroke-width: 1.0;"/><path d="M271.9731,29.6431 Q271.3921,29.9419 270.7529,30.0913 Q270.1138,30.2407 269.4082,30.2407 Q266.9014,30.2407 265.5815,28.5889 Q264.2617,26.937 264.2617,23.8159 Q264.2617,20.6865 265.5815,19.0347 Q266.9014,17.3828 269.4082,17.3828 Q270.1138,17.3828 270.7612,17.5322 Q271.4087,17.6816 271.9731,17.9805 L271.9731,20.7031 Q271.3423,20.1221 270.7488,19.8523 Q270.1553,19.5825 269.5244,19.5825 Q268.1797,19.5825 267.4949,20.6492 Q266.8101,21.7158 266.8101,23.8159 Q266.8101,25.9077 267.4949,26.9744 Q268.1797,28.041 269.5244,28.041 Q270.1553,28.041 270.7488,27.7712 Q271.3423,27.5015 271.9731,26.9204 Z "/><text fill="#000000" font-family="sans-serif" font-size="12" lengthAdjust="spacingAndGlyphs" textLength="85" x="283" y="28.5352">RepoCollection</text><line style="stroke: #A80036; stroke-width: 1.5;" x1="255" x2="370" y1="40" y2="40"/><line style="stroke: #A80036; stroke-width: 1.5;" x1="255" x2="370" y1="48" y2="48"/><rect fill="#FEFECE" filter="url(#f1)" height="48" style="stroke: #A80036; stroke-width: 1.5;" width="81" x="272" y="116"/><ellipse cx="287" cy="132" fill="#ADD1B2" rx="11" ry="11" style="stroke: #A80036; stroke-width: 1.0;"/><path d="M289.9731,137.6431 Q289.3921,137.9419 288.7529,138.0913 Q288.1138,138.2407 287.4082,138.2407 Q284.9014,138.2407 283.5815,136.5889 Q282.2617,134.937 282.2617,131.8159 Q282.2617,128.6865 283.5815,127.0347 Q284.9014,125.3828 287.4082,125.3828 Q288.1138,125.3828 288.7612,125.5322 Q289.4087,125.6816 289.9731,125.9805 L289.9731,128.7031 Q289.3423,128.1221 288.7488,127.8523 Q288.1553,127.5825 287.5244,127.5825 Q286.1797,127.5825 285.4949,128.6492 Q284.8101,129.7158 284.8101,131.8159 Q284.8101,133.9077 285.4949,134.9744 Q286.1797,136.041 287.5244,136.041 Q288.1553,136.041 288.7488,135.7712 Q289.3423,135.5015 289.9731,134.9204 Z "/><text fill="#000000" font-family="sans-serif" font-size="12" lengthAdjust="spacingAndGlyphs" textLength="49" x="301" y="136.5352">RepoFile</text><line style="stroke: #A80036; stroke-width: 1.5;" x1="273" x2="352" y1="148" y2="148"/><line style="stroke: #A80036; stroke-width: 1.5;" x1="273" x2="352" y1="156" y2="156"/><rect fill="#FEFECE" filter="url(#f1)" height="48" style="stroke: #A80036; stroke-width: 1.5;" width="62" x="281.5" y="224"/><ellipse cx="296.5" cy="240" fill="#ADD1B2" rx="11" ry="11" style="stroke: #A80036; stroke-width: 1.0;"/><path d="M299.4731,245.6431 Q298.8921,245.9419 298.2529,246.0913 Q297.6138,246.2407 296.9082,246.2407 Q294.4014,246.2407 293.0815,244.5889 Q291.7617,242.937 291.7617,239.8159 Q291.7617,236.6865 293.0815,235.0347 Q294.4014,233.3828 296.9082,233.3828 Q297.6138,233.3828 298.2612,233.5322 Q298.9087,233.6816 299.4731,233.9805 L299.4731,236.7031 Q298.8423,236.1221 298.2488,235.8523 Q297.6553,235.5825 297.0244,235.5825 Q295.6797,235.5825 294.9949,236.6492 Q294.3101,237.7158 294.3101,239.8159 Q294.3101,241.9077 294.9949,242.9744 Q295.6797,244.041 297.0244,244.041 Q297.6553,244.041 298.2488,243.7712 Q298.8423,243.5015 299.4731,242.9204 Z "/><text fill="#000000" font-family="sans-serif" font-size="12" lengthAdjust="spacingAndGlyphs" textLength="30" x="310.5" y="244.5352">Repo</text><line style="stroke: #A80036; stroke-width: 1.5;" x1="282.5" x2="342.5" y1="256" y2="256"/><line style="stroke: #A80036; stroke-width: 1.5;" x1="282.5" x2="342.5" y1="264" y2="264"/><rect fill="#FEFECE" filter="url(#f1)" height="48" style="stroke: #A80036; stroke-width: 1.5;" width="86" x="269.5" y="332"/><ellipse cx="284.5" cy="348" fill="#ADD1B2" rx="11" ry="11" style="stroke: #A80036; stroke-width: 1.0;"/><path d="M287.4731,353.6431 Q286.8921,353.9419 286.2529,354.0913 Q285.6138,354.2407 284.9082,354.2407 Q282.4014,354.2407 281.0815,352.5889 Q279.7617,350.937 279.7617,347.8159 Q279.7617,344.6865 281.0815,343.0347 Q282.4014,341.3828 284.9082,341.3828 Q285.6138,341.3828 286.2612,341.5322 Q286.9087,341.6816 287.4731,341.9805 L287.4731,344.7031 Q286.8423,344.1221 286.2488,343.8523 Q285.6553,343.5825 285.0244,343.5825 Q283.6797,343.5825 282.9949,344.6492 Q282.3101,345.7158 282.3101,347.8159 Q282.3101,349.9077 282.9949,350.9744 Q283.6797,352.041 285.0244,352.041 Q285.6553,352.041 286.2488,351.7712 Q286.8423,351.5015 287.4731,350.9204 Z "/><text fill="#000000" font-family="sans-serif" font-size="12" lengthAdjust="spacingAndGlyphs" textLength="54" x="298.5" y="352.5352">Metadata</text><line style="stroke: #A80036; stroke-width: 1.5;" x1="270.5" x2="354.5" y1="364" y2="364"/><line style="stroke: #A80036; stroke-width: 1.5;" x1="270.5" x2="354.5" y1="372" y2="372"/><rect fill="#FEFECE" filter="url(#f1)" height="48" style="stroke: #A80036; stroke-width: 1.5;" width="87" x="269" y="548"/><ellipse cx="284" cy="564" fill="#A9DCDF" rx="11" ry="11" style="stroke: #A80036; stroke-width: 1.0;"/><path d="M284.1133,559.3481 L282.9595,564.4199 L285.2754,564.4199 Z M282.6191,557.1069 L285.6157,557.1069 L288.9609,569.5 L286.5122,569.5 L285.7485,566.437 L282.4697,566.437 L281.7227,569.5 L279.2739,569.5 Z "/><text fill="#000000" font-family="sans-serif" font-size="12" font-style="italic" lengthAdjust="spacingAndGlyphs" textLength="55" x="298" y="568.5352">Database</text><line style="stroke: #A80036; stroke-width: 1.5;" x1="270" x2="355" y1="580" y2="580"/><line style="stroke: #A80036; stroke-width: 1.5;" x1="270" x2="355" y1="588" y2="588"/><rect fill="#FEFECE" filter="url(#f1)" height="48" style="stroke: #A80036; stroke-width: 1.5;" width="93" x="22" y="440"/><ellipse cx="37" cy="456" fill="#ADD1B2" rx="11" ry="11" style="stroke: #A80036; stroke-width: 1.0;"/><path d="M39.9731,461.6431 Q39.3921,461.9419 38.7529,462.0913 Q38.1138,462.2407 37.4082,462.2407 Q34.9014,462.2407 33.5815,460.5889 Q32.2617,458.937 32.2617,455.8159 Q32.2617,452.6865 33.5815,451.0347 Q34.9014,449.3828 37.4082,449.3828 Q38.1138,449.3828 38.7612,449.5322 Q39.4087,449.6816 39.9731,449.9805 L39.9731,452.7031 Q39.3423,452.1221 38.7488,451.8523 Q38.1553,451.5825 37.5244,451.5825 Q36.1797,451.5825 35.4949,452.6492 Q34.8101,453.7158 34.8101,455.8159 Q34.8101,457.9077 35.4949,458.9744 Q36.1797,460.041 37.5244,460.041 Q38.1553,460.041 38.7488,459.7712 Q39.3423,459.5015 39.9731,458.9204 Z "/><text fill="#000000" font-family="sans-serif" font-size="12" lengthAdjust="spacingAndGlyphs" textLength="61" x="51" y="460.5352">PrimaryDb</text><line style="stroke: #A80036; stroke-width: 1.5;" x1="23" x2="114" y1="472" y2="472"/><line style="stroke: #A80036; stroke-width: 1.5;" x1="23" x2="114" y1="480" y2="480"/><rect fill="#FEFECE" filter="url(#f1)" height="48" style="stroke: #A80036; stroke-width: 1.5;" width="85" x="150" y="440"/><ellipse cx="165" cy="456" fill="#ADD1B2" rx="11" ry="11" style="stroke: #A80036; stroke-width: 1.0;"/><path d="M167.9731,461.6431 Q167.3921,461.9419 166.7529,462.0913 Q166.1138,462.2407 165.4082,462.2407 Q162.9014,462.2407 161.5815,460.5889 Q160.2617,458.937 160.2617,455.8159 Q160.2617,452.6865 161.5815,451.0347 Q162.9014,449.3828 165.4082,449.3828 Q166.1138,449.3828 166.7612,449.5322 Q167.4087,449.6816 167.9731,449.9805 L167.9731,452.7031 Q167.3423,452.1221 166.7488,451.8523 Q166.1553,451.5825 165.5244,451.5825 Q164.1797,451.5825 163.4949,452.6492 Q162.8101,453.7158 162.8101,455.8159 Q162.8101,457.9077 163.4949,458.9744 Q164.1797,460.041 165.5244,460.041 Q166.1553,460.041 166.7488,459.7712 Q167.3423,459.5015 167.9731,458.9204 Z "/><text fill="#000000" font-family="sans-serif" font-size="12" lengthAdjust="spacingAndGlyphs" textLength="53" x="179" y="460.5352">GroupDb</text><line style="stroke: #A80036; stroke-width: 1.5;" x1="151" x2="234" y1="472" y2="472"/><line style="stroke: #A80036; stroke-width: 1.5;" x1="151" x2="234" y1="480" y2="480"/><rect fill="#FEFECE" filter="url(#f1)" height="48" style="stroke: #A80036; stroke-width: 1.5;" width="84" x="270.5" y="440"/><ellipse cx="285.5" cy="456" fill="#ADD1B2" rx="11" ry="11" style="stroke: #A80036; stroke-width: 1.0;"/><path d="M288.4731,461.6431 Q287.8921,461.9419 287.2529,462.0913 Q286.6138,462.2407 285.9082,462.2407 Q283.4014,462.2407 282.0815,460.5889 Q280.7617,458.937 280.7617,455.8159 Q280.7617,452.6865 282.0815,451.0347 Q283.4014,449.3828 285.9082,449.3828 Q286.6138,449.3828 287.2612,449.5322 Q287.9087,449.6816 288.4731,449.9805 L288.4731,452.7031 Q287.8423,452.1221 287.2488,451.8523 Q286.6553,451.5825 286.0244,451.5825 Q284.6797,451.5825 283.9949,452.6492 Q283.3101,453.7158 283.3101,455.8159 Q283.3101,457.9077 283.9949,458.9744 Q284.6797,460.041 286.0244,460.041 Q286.6553,460.041 287.2488,459.7712 Q287.8423,459.5015 288.4731,458.9204 Z "/><text fill="#000000" font-family="sans-serif" font-size="12" lengthAdjust="spacingAndGlyphs" textLength="52" x="299.5" y="460.5352">FilelistDb</text><line style="stroke: #A80036; stroke-width: 1.5;" x1="271.5" x2="353.5" y1="472" y2="472"/><line style="stroke: #A80036; stroke-width: 1.5;" x1="271.5" x2="353.5" y1="480" y2="480"/><rect fill="#FEFECE" filter="url(#f1)" height="48" style="stroke: #A80036; stroke-width: 1.5;" width="81" x="390" y="440"/><ellipse cx="405" cy="456" fill="#ADD1B2" rx="11" ry="11" style="stroke: #A80036; stroke-width: 1.0;"/><path d="M407.9731,461.6431 Q407.3921,461.9419 406.7529,462.0913 Q406.1138,462.2407 405.4082,462.2407 Q402.9014,462.2407 401.5815,460.5889 Q400.2617,458.937 400.2617,455.8159 Q400.2617,452.6865 401.5815,451.0347 Q402.9014,449.3828 405.4082,449.3828 Q406.1138,449.3828 406.7612,449.5322 Q407.4087,449.6816 407.9731,449.9805 L407.9731,452.7031 Q407.3423,452.1221 406.7488,451.8523 Q406.1553,451.5825 405.5244,451.5825 Q404.1797,451.5825 403.4949,452.6492 Q402.8101,453.7158 402.8101,455.8159 Q402.8101,457.9077 403.4949,458.9744 Q404.1797,460.041 405.5244,460.041 Q406.1553,460.041 406.7488,459.7712 Q407.3423,459.5015 407.9731,458.9204 Z "/><text fill="#000000" font-family="sans-serif" font-size="12" lengthAdjust="spacingAndGlyphs" textLength="49" x="419" y="460.5352">OtherDb</text><line style="stroke: #A80036; stroke-width: 1.5;" x1="391" x2="470" y1="472" y2="472"/><line style="stroke: #A80036; stroke-width: 1.5;" x1="391" x2="470" y1="480" y2="480"/><rect fill="#FEFECE" filter="url(#f1)" height="48" style="stroke: #A80036; stroke-width: 1.5;" width="91" x="506" y="440"/><ellipse cx="521" cy="456" fill="#ADD1B2" rx="11" ry="11" style="stroke: #A80036; stroke-width: 1.0;"/><path d="M523.9731,461.6431 Q523.3921,461.9419 522.7529,462.0913 Q522.1138,462.2407 521.4082,462.2407 Q518.9014,462.2407 517.5815,460.5889 Q516.2617,458.937 516.2617,455.8159 Q516.2617,452.6865 517.5815,451.0347 Q518.9014,449.3828 521.4082,449.3828 Q522.1138,449.3828 522.7612,449.5322 Q523.4087,449.6816 523.9731,449.9805 L523.9731,452.7031 Q523.3423,452.1221 522.7488,451.8523 Q522.1553,451.5825 521.5244,451.5825 Q520.1797,451.5825 519.4949,452.6492 Q518.8101,453.7158 518.8101,455.8159 Q518.8101,457.9077 519.4949,458.9744 Q520.1797,460.041 521.5244,460.041 Q522.1553,460.041 522.7488,459.7712 Q523.3423,459.5015 523.9731,458.9204 Z "/><text fill="#000000" font-family="sans-serif" font-size="12" lengthAdjust="spacingAndGlyphs" textLength="59" x="535" y="460.5352">UpdateDb</text><line style="stroke: #A80036; stroke-width: 1.5;" x1="507" x2="596" y1="472" y2="472"/><line style="stroke: #A80036; stroke-width: 1.5;" x1="507" x2="596" y1="480" y2="480"/><rect fill="#FEFECE" filter="url(#f1)" height="48" style="stroke: #A80036; stroke-width: 1.5;" width="80" x="272.5" y="656"/><ellipse cx="287.5" cy="672" fill="#ADD1B2" rx="11" ry="11" style="stroke: #A80036; stroke-width: 1.0;"/><path d="M290.4731,677.6431 Q289.8921,677.9419 289.2529,678.0913 Q288.6138,678.2407 287.9082,678.2407 Q285.4014,678.2407 284.0815,676.5889 Q282.7617,674.937 282.7617,671.8159 Q282.7617,668.6865 284.0815,667.0347 Q285.4014,665.3828 287.9082,665.3828 Q288.6138,665.3828 289.2612,665.5322 Q289.9087,665.6816 290.4731,665.9805 L290.4731,668.7031 Q289.8423,668.1221 289.2488,667.8523 Q288.6553,667.5825 288.0244,667.5825 Q286.6797,667.5825 285.9949,668.6492 Q285.3101,669.7158 285.3101,671.8159 Q285.3101,673.9077 285.9949,674.9744 Q286.6797,676.041 288.0244,676.041 Q288.6553,676.041 289.2488,675.7712 Q289.8423,675.5015 290.4731,674.9204 Z "/><text fill="#000000" font-family="sans-serif" font-size="12" lengthAdjust="spacingAndGlyphs" textLength="48" x="301.5" y="676.5352">Package</text><line style="stroke: #A80036; stroke-width: 1.5;" x1="273.5" x2="351.5" y1="688" y2="688"/><line style="stroke: #A80036; stroke-width: 1.5;" x1="273.5" x2="351.5" y1="696" y2="696"/><rect fill="#FEFECE" filter="url(#f1)" height="48" style="stroke: #A80036; stroke-width: 1.5;" width="72" x="226.5" y="764"/><ellipse cx="241.5" cy="780" fill="#ADD1B2" rx="11" ry="11" style="stroke: #A80036; stroke-width: 1.0;"/><path d="M244.4731,785.6431 Q243.8921,785.9419 243.2529,786.0913 Q242.6138,786.2407 241.9082,786.2407 Q239.4014,786.2407 238.0815,784.5889 Q236.7617,782.937 236.7617,779.8159 Q236.7617,776.6865 238.0815,775.0347 Q239.4014,773.3828 241.9082,773.3828 Q242.6138,773.3828 243.2612,773.5322 Q243.9087,773.6816 244.4731,773.9805 L244.4731,776.7031 Q243.8423,776.1221 243.2488,775.8523 Q242.6553,775.5825 242.0244,775.5825 Q240.6797,775.5825 239.9949,776.6492 Q239.3101,777.7158 239.3101,779.8159 Q239.3101,781.9077 239.9949,782.9744 Q240.6797,784.041 242.0244,784.041 Q242.6553,784.041 243.2488,783.7712 Q243.8423,783.5015 244.4731,782.9204 Z "/><text fill="#000000" font-family="sans-serif" font-size="12" lengthAdjust="spacingAndGlyphs" textLength="40" x="255.5" y="784.5352">Format</text><line style="stroke: #A80036; stroke-width: 1.5;" x1="227.5" x2="297.5" y1="796" y2="796"/><line style="stroke: #A80036; stroke-width: 1.5;" x1="227.5" x2="297.5" y1="804" y2="804"/><rect fill="#FEFECE" filter="url(#f1)" height="48" style="stroke: #A80036; stroke-width: 1.5;" width="133" x="196" y="980"/><ellipse cx="211" cy="996" fill="#ADD1B2" rx="11" ry="11" style="stroke: #A80036; stroke-width: 1.0;"/><path d="M213.9731,1001.6431 Q213.3921,1001.9419 212.7529,1002.0913 Q212.1138,1002.2407 211.4082,1002.2407 Q208.9014,1002.2407 207.5815,1000.5889 Q206.2617,998.937 206.2617,995.8159 Q206.2617,992.6865 207.5815,991.0347 Q208.9014,989.3828 211.4082,989.3828 Q212.1138,989.3828 212.7612,989.5322 Q213.4087,989.6816 213.9731,989.9805 L213.9731,992.7031 Q213.3423,992.1221 212.7488,991.8523 Q212.1553,991.5825 211.5244,991.5825 Q210.1797,991.5825 209.4949,992.6492 Q208.8101,993.7158 208.8101,995.8159 Q208.8101,997.9077 209.4949,998.9744 Q210.1797,1000.041 211.5244,1000.041 Q212.1553,1000.041 212.7488,999.7712 Q213.3423,999.5015 213.9731,998.9204 Z "/><text fill="#000000" font-family="sans-serif" font-size="12" lengthAdjust="spacingAndGlyphs" textLength="101" x="225" y="1000.5352">DependencyEntry</text><line style="stroke: #A80036; stroke-width: 1.5;" x1="197" x2="328" y1="1012" y2="1012"/><line style="stroke: #A80036; stroke-width: 1.5;" x1="197" x2="328" y1="1020" y2="1020"/><rect fill="#FEFECE" filter="url(#f1)" height="48" style="stroke: #A80036; stroke-width: 1.5;" width="57" x="334" y="764"/><ellipse cx="349" cy="780" fill="#ADD1B2" rx="11" ry="11" style="stroke: #A80036; stroke-width: 1.0;"/><path d="M351.9731,785.6431 Q351.3921,785.9419 350.7529,786.0913 Q350.1138,786.2407 349.4082,786.2407 Q346.9014,786.2407 345.5815,784.5889 Q344.2617,782.937 344.2617,779.8159 Q344.2617,776.6865 345.5815,775.0347 Q346.9014,773.3828 349.4082,773.3828 Q350.1138,773.3828 350.7612,773.5322 Q351.4087,773.6816 351.9731,773.9805 L351.9731,776.7031 Q351.3423,776.1221 350.7488,775.8523 Q350.1553,775.5825 349.5244,775.5825 Q348.1797,775.5825 347.4949,776.6492 Q346.8101,777.7158 346.8101,779.8159 Q346.8101,781.9077 347.4949,782.9744 Q348.1797,784.041 349.5244,784.041 Q350.1553,784.041 350.7488,783.7712 Q351.3423,783.5015 351.9731,782.9204 Z "/><text fill="#000000" font-family="sans-serif" font-size="12" lengthAdjust="spacingAndGlyphs" textLength="25" x="363" y="784.5352">RPM</text><line style="stroke: #A80036; stroke-width: 1.5;" x1="335" x2="390" y1="796" y2="796"/><line style="stroke: #A80036; stroke-width: 1.5;" x1="335" x2="390" y1="804" y2="804"/><rect fill="#FEFECE" filter="url(#f1)" height="48" style="stroke: #A80036; stroke-width: 1.5;" width="48" x="406.5" y="8"/><ellipse cx="421.5" cy="24" fill="#ADD1B2" rx="11" ry="11" style="stroke: #A80036; stroke-width: 1.0;"/><path d="M424.4731,29.6431 Q423.8921,29.9419 423.2529,30.0913 Q422.6138,30.2407 421.9082,30.2407 Q419.4014,30.2407 418.0815,28.5889 Q416.7617,26.937 416.7617,23.8159 Q416.7617,20.6865 418.0815,19.0347 Q419.4014,17.3828 421.9082,17.3828 Q422.6138,17.3828 423.2612,17.5322 Q423.9087,17.6816 424.4731,17.9805 L424.4731,20.7031 Q423.8423,20.1221 423.2488,19.8523 Q422.6553,19.5825 422.0244,19.5825 Q420.6797,19.5825 419.9949,20.6492 Q419.3101,21.7158 419.3101,23.8159 Q419.3101,25.9077 419.9949,26.9744 Q420.6797,28.041 422.0244,28.041 Q422.6553,28.041 423.2488,27.7712 Q423.8423,27.5015 424.4731,26.9204 Z "/><text fill="#000000" font-family="sans-serif" font-size="12" lengthAdjust="spacingAndGlyphs" textLength="16" x="435.5" y="28.5352">list</text><line style="stroke: #A80036; stroke-width: 1.5;" x1="407.5" x2="453.5" y1="40" y2="40"/><line style="stroke: #A80036; stroke-width: 1.5;" x1="407.5" x2="453.5" y1="48" y2="48"/><rect fill="#FEFECE" filter="url(#f1)" height="48" style="stroke: #A80036; stroke-width: 1.5;" width="101" x="6" y="872"/><ellipse cx="21" cy="888" fill="#ADD1B2" rx="11" ry="11" style="stroke: #A80036; stroke-width: 1.0;"/><path d="M23.9731,893.6431 Q23.3921,893.9419 22.7529,894.0913 Q22.1138,894.2407 21.4082,894.2407 Q18.9014,894.2407 17.5815,892.5889 Q16.2617,890.937 16.2617,887.8159 Q16.2617,884.6865 17.5815,883.0347 Q18.9014,881.3828 21.4082,881.3828 Q22.1138,881.3828 22.7612,881.5322 Q23.4087,881.6816 23.9731,881.9805 L23.9731,884.7031 Q23.3423,884.1221 22.7488,883.8523 Q22.1553,883.5825 21.5244,883.5825 Q20.1797,883.5825 19.4949,884.6492 Q18.8101,885.7158 18.8101,887.8159 Q18.8101,889.9077 19.4949,890.9744 Q20.1797,892.041 21.5244,892.041 Q22.1553,892.041 22.7488,891.7712 Q23.3423,891.5015 23.9731,890.9204 Z "/><text fill="#000000" font-family="sans-serif" font-size="12" lengthAdjust="spacingAndGlyphs" textLength="49" x="35" y="892.5352">Provides</text><rect fill="#FFFFFF" height="16.1328" style="stroke: #000000; stroke-width: 1.0; stroke-dasharray: 2.0,2.0;" width="18" x="92" y="869"/><text fill="#000000" font-family="sans-serif" font-size="12" font-style="italic" lengthAdjust="spacingAndGlyphs" textLength="16" x="93" y="881.6016">list</text><line style="stroke: #A80036; stroke-width: 1.5;" x1="7" x2="106" y1="904" y2="904"/><line style="stroke: #A80036; stroke-width: 1.5;" x1="7" x2="106" y1="912" y2="912"/><rect fill="#FEFECE" filter="url(#f1)" height="48" style="stroke: #A80036; stroke-width: 1.5;" width="104" x="142.5" y="872"/><ellipse cx="157.5" cy="888" fill="#ADD1B2" rx="11" ry="11" style="stroke: #A80036; stroke-width: 1.0;"/><path d="M160.4731,893.6431 Q159.8921,893.9419 159.2529,894.0913 Q158.6138,894.2407 157.9082,894.2407 Q155.4014,894.2407 154.0815,892.5889 Q152.7617,890.937 152.7617,887.8159 Q152.7617,884.6865 154.0815,883.0347 Q155.4014,881.3828 157.9082,881.3828 Q158.6138,881.3828 159.2612,881.5322 Q159.9087,881.6816 160.4731,881.9805 L160.4731,884.7031 Q159.8423,884.1221 159.2488,883.8523 Q158.6553,883.5825 158.0244,883.5825 Q156.6797,883.5825 155.9949,884.6492 Q155.3101,885.7158 155.3101,887.8159 Q155.3101,889.9077 155.9949,890.9744 Q156.6797,892.041 158.0244,892.041 Q158.6553,892.041 159.2488,891.7712 Q159.8423,891.5015 160.4731,890.9204 Z "/><text fill="#000000" font-family="sans-serif" font-size="12" lengthAdjust="spacingAndGlyphs" textLength="52" x="171.5" y="892.5352">Depends</text><rect fill="#FFFFFF" height="16.1328" style="stroke: #000000; stroke-width: 1.0; stroke-dasharray: 2.0,2.0;" width="18" x="231.5" y="869"/><text fill="#000000" font-family="sans-serif" font-size="12" font-style="italic" lengthAdjust="spacingAndGlyphs" textLength="16" x="232.5" y="881.6016">list</text><line style="stroke: #A80036; stroke-width: 1.5;" x1="143.5" x2="245.5" y1="904" y2="904"/><line style="stroke: #A80036; stroke-width: 1.5;" x1="143.5" x2="245.5" y1="912" y2="912"/><rect fill="#FEFECE" filter="url(#f1)" height="48" style="stroke: #A80036; stroke-width: 1.5;" width="100" x="281.5" y="872"/><ellipse cx="296.5" cy="888" fill="#ADD1B2" rx="11" ry="11" style="stroke: #A80036; stroke-width: 1.0;"/><path d="M299.4731,893.6431 Q298.8921,893.9419 298.2529,894.0913 Q297.6138,894.2407 296.9082,894.2407 Q294.4014,894.2407 293.0815,892.5889 Q291.7617,890.937 291.7617,887.8159 Q291.7617,884.6865 293.0815,883.0347 Q294.4014,881.3828 296.9082,881.3828 Q297.6138,881.3828 298.2612,881.5322 Q298.9087,881.6816 299.4731,881.9805 L299.4731,884.7031 Q298.8423,884.1221 298.2488,883.8523 Q297.6553,883.5825 297.0244,883.5825 Q295.6797,883.5825 294.9949,884.6492 Q294.3101,885.7158 294.3101,887.8159 Q294.3101,889.9077 294.9949,890.9744 Q295.6797,892.041 297.0244,892.041 Q297.6553,892.041 298.2488,891.7712 Q298.8423,891.5015 299.4731,890.9204 Z "/><text fill="#000000" font-family="sans-serif" font-size="12" lengthAdjust="spacingAndGlyphs" textLength="48" x="310.5" y="892.5352">Conflicts</text><rect fill="#FFFFFF" height="16.1328" style="stroke: #000000; stroke-width: 1.0; stroke-dasharray: 2.0,2.0;" width="18" x="366.5" y="869"/><text fill="#000000" font-family="sans-serif" font-size="12" font-style="italic" lengthAdjust="spacingAndGlyphs" textLength="16" x="367.5" y="881.6016">list</text><line style="stroke: #A80036; stroke-width: 1.5;" x1="282.5" x2="380.5" y1="904" y2="904"/><line style="stroke: #A80036; stroke-width: 1.5;" x1="282.5" x2="380.5" y1="912" y2="912"/><rect fill="#FEFECE" filter="url(#f1)" height="48" style="stroke: #A80036; stroke-width: 1.5;" width="109" x="417" y="872"/><ellipse cx="432" cy="888" fill="#ADD1B2" rx="11" ry="11" style="stroke: #A80036; stroke-width: 1.0;"/><path d="M434.9731,893.6431 Q434.3921,893.9419 433.7529,894.0913 Q433.1138,894.2407 432.4082,894.2407 Q429.9014,894.2407 428.5815,892.5889 Q427.2617,890.937 427.2617,887.8159 Q427.2617,884.6865 428.5815,883.0347 Q429.9014,881.3828 432.4082,881.3828 Q433.1138,881.3828 433.7612,881.5322 Q434.4087,881.6816 434.9731,881.9805 L434.9731,884.7031 Q434.3423,884.1221 433.7488,883.8523 Q433.1553,883.5825 432.5244,883.5825 Q431.1797,883.5825 430.4949,884.6492 Q429.8101,885.7158 429.8101,887.8159 Q429.8101,889.9077 430.4949,890.9744 Q431.1797,892.041 432.5244,892.041 Q433.1553,892.041 433.7488,891.7712 Q434.3423,891.5015 434.9731,890.9204 Z "/><text fill="#000000" font-family="sans-serif" font-size="12" lengthAdjust="spacingAndGlyphs" textLength="57" x="446" y="892.5352">Obsoletes</text><rect fill="#FFFFFF" height="16.1328" style="stroke: #000000; stroke-width: 1.0; stroke-dasharray: 2.0,2.0;" width="18" x="511" y="869"/><text fill="#000000" font-family="sans-serif" font-size="12" font-style="italic" lengthAdjust="spacingAndGlyphs" textLength="16" x="512" y="881.6016">list</text><line style="stroke: #A80036; stroke-width: 1.5;" x1="418" x2="525" y1="904" y2="904"/><line style="stroke: #A80036; stroke-width: 1.5;" x1="418" x2="525" y1="912" y2="912"/><path d="M312.5,69.338 C312.5,84.681 312.5,102.098 312.5,115.678 " fill="none" style="stroke: #A80036; stroke-width: 1.0;"/><polygon fill="none" points="312.5,56,308.5,62,312.5,68,316.5,62,312.5,56" style="stroke: #A80036; stroke-width: 1.0;"/><text fill="#000000" font-family="sans-serif" font-size="13" lengthAdjust="spacingAndGlyphs" textLength="8" x="303.475" y="76.68">1</text><text fill="#000000" font-family="sans-serif" font-size="13" lengthAdjust="spacingAndGlyphs" textLength="22" x="287.6813" y="105.1318">1..*</text><path d="M312.5,177.338 C312.5,192.681 312.5,210.098 312.5,223.678 " fill="none" style="stroke: #A80036; stroke-width: 1.0;"/><polygon fill="none" points="312.5,164,308.5,170,312.5,176,316.5,170,312.5,164" style="stroke: #A80036; stroke-width: 1.0;"/><text fill="#000000" font-family="sans-serif" font-size="13" lengthAdjust="spacingAndGlyphs" textLength="8" x="303.475" y="184.68">1</text><text fill="#000000" font-family="sans-serif" font-size="13" lengthAdjust="spacingAndGlyphs" textLength="22" x="287.6813" y="213.1318">1..*</text><path d="M312.5,285.338 C312.5,300.681 312.5,318.098 312.5,331.678 " fill="none" style="stroke: #A80036; stroke-width: 1.0;"/><polygon fill="#A80036" points="312.5,272,308.5,278,312.5,284,316.5,278,312.5,272" style="stroke: #A80036; stroke-width: 1.0;"/><text fill="#000000" font-family="sans-serif" font-size="13" lengthAdjust="spacingAndGlyphs" textLength="8" x="303.475" y="292.68">1</text><text fill="#000000" font-family="sans-serif" font-size="13" lengthAdjust="spacingAndGlyphs" textLength="8" x="303.475" y="321.1318">1</text><path d="M257.258,380.998 C214.451,399.595 155.799,425.075 115.288,442.674 " fill="none" style="stroke: #A80036; stroke-width: 1.0;"/><polygon fill="#A80036" points="269.439,375.707,262.3421,374.4288,258.4327,380.4882,265.5296,381.7664,269.439,375.707" style="stroke: #A80036; stroke-width: 1.0;"/><path d="M276.599,388.713 C258.062,405.087 235.845,424.712 218.902,439.678 " fill="none" style="stroke: #A80036; stroke-width: 1.0;"/><polygon fill="#A80036" points="286.462,380,279.3171,380.9747,277.4688,387.9449,284.6137,386.9702,286.462,380" style="stroke: #A80036; stroke-width: 1.0;"/><path d="M312.5,393.338 C312.5,408.681 312.5,426.098 312.5,439.678 " fill="none" style="stroke: #A80036; stroke-width: 1.0;"/><polygon fill="#A80036" points="312.5,380,308.5,386,312.5,392,316.5,386,312.5,380" style="stroke: #A80036; stroke-width: 1.0;"/><path d="M347.803,388.713 C366.031,405.087 387.878,424.712 404.538,439.678 " fill="none" style="stroke: #A80036; stroke-width: 1.0;"/><polygon fill="#A80036" points="338.104,380,339.8948,386.9852,347.0314,388.0188,345.2406,381.0336,338.104,380" style="stroke: #A80036; stroke-width: 1.0;"/><path d="M367.458,381.375 C409.427,399.989 466.57,425.332 505.994,442.818 " fill="none" style="stroke: #A80036; stroke-width: 1.0;"/><polygon fill="#A80036" points="355.504,376.073,359.3668,382.1622,366.4733,380.9386,362.6105,374.8494,355.504,376.073" style="stroke: #A80036; stroke-width: 1.0;"/><path d="M133.656,493.305 C176.416,511.882 231.176,535.671 268.772,552.003 " fill="none" style="stroke: #A80036; stroke-width: 1.0;"/><polygon fill="none" points="130.812,499.702,115.257,485.312,136.39,486.861,130.812,499.702" style="stroke: #A80036; stroke-width: 1.0;"/><path d="M233.638,501.338 C251.007,516.681 270.724,534.098 286.098,547.678 " fill="none" style="stroke: #A80036; stroke-width: 1.0;"/><polygon fill="none" points="228.893,506.487,218.538,488,238.162,495.995,228.893,506.487" style="stroke: #A80036; stroke-width: 1.0;"/><path d="M312.5,508.024 C312.5,521.579 312.5,536.038 312.5,547.678 " fill="none" style="stroke: #A80036; stroke-width: 1.0;"/><polygon fill="none" points="305.5,508,312.5,488,319.5,508,305.5,508" style="stroke: #A80036; stroke-width: 1.0;"/><path d="M389.786,501.573 C372.77,516.859 353.502,534.167 338.462,547.678 " fill="none" style="stroke: #A80036; stroke-width: 1.0;"/><polygon fill="none" points="385.339,496.158,404.896,488,394.695,506.573,385.339,496.158" style="stroke: #A80036; stroke-width: 1.0;"/><path d="M487.524,493.374 C446.003,511.789 392.984,535.304 356.234,551.603 " fill="none" style="stroke: #A80036; stroke-width: 1.0;"/><polygon fill="none" points="484.863,486.897,505.983,485.187,490.539,499.695,484.863,486.897" style="stroke: #A80036; stroke-width: 1.0;"/><path d="M312.5,609.338 C312.5,624.681 312.5,642.098 312.5,655.678 " fill="none" style="stroke: #A80036; stroke-width: 1.0;"/><polygon fill="none" points="312.5,596,308.5,602,312.5,608,316.5,602,312.5,596" style="stroke: #A80036; stroke-width: 1.0;"/><path d="M328.979,715.935 C336.373,731.611 344.897,749.682 351.499,763.678 " fill="none" style="stroke: #A80036; stroke-width: 1.0;"/><polygon fill="none" points="323.349,704,322.2906,711.133,328.4678,714.8535,329.5262,707.7205,323.349,704" style="stroke: #A80036; stroke-width: 1.0;"/><path d="M296.021,715.935 C288.627,731.611 280.103,749.682 273.501,763.678 " fill="none" style="stroke: #A80036; stroke-width: 1.0;"/><polygon fill="#A80036" points="301.651,704,295.4738,707.7205,296.5322,714.8535,302.7094,711.133,301.651,704" style="stroke: #A80036; stroke-width: 1.0;"/><path d="M365.926,660.173 C378.352,661.842 387.5,668.451 387.5,680 C387.5,695.398 371.237,702.015 352.624,699.85 " fill="none" style="stroke: #A80036; stroke-width: 1.0;"/><polygon fill="#A80036" points="352.624,660.15,358.617,664.1605,364.624,660.1711,358.631,656.1606,352.624,660.15" style="stroke: #A80036; stroke-width: 1.0;"/><path d="M214.143,813.882 C180.071,831.415 134.769,854.726 101.4739,871.858 " fill="none" style="stroke: #A80036; stroke-width: 1.0;"/><polygon fill="#A80036" points="226.146,807.707,218.9807,806.8956,215.4758,813.1977,222.6411,814.0091,226.146,807.707" style="stroke: #A80036; stroke-width: 1.0;"/><path d="M240.684,823.007 C230.493,838.894 218.617,857.405 209.461,871.678 " fill="none" style="stroke: #A80036; stroke-width: 1.0;"/><polygon fill="#A80036" points="247.745,812,241.1386,814.8905,241.2658,822.1005,247.8723,819.21,247.745,812" style="stroke: #A80036; stroke-width: 1.0;"/><path d="M284.637,823.007 C294.978,838.894 307.028,857.405 316.319,871.678 " fill="none" style="stroke: #A80036; stroke-width: 1.0;"/><polygon fill="#A80036" points="277.472,812,277.3935,819.2107,284.0194,822.0564,284.0978,814.8458,277.472,812" style="stroke: #A80036; stroke-width: 1.0;"/><path d="M310.654,813.423 C345.379,831.034 391.946,854.652 426.037,871.942 " fill="none" style="stroke: #A80036; stroke-width: 1.0;"/><polygon fill="#A80036" points="298.905,807.464,302.447,813.7453,309.6074,812.8917,306.0654,806.6104,298.905,807.464" style="stroke: #A80036; stroke-width: 1.0;"/><path d="M112.929,926.036 C145.848,942.975 186.805,964.0501 217.533,979.8617 " fill="none" style="stroke: #A80036; stroke-width: 1.0;"/><polygon fill="#A80036" points="101.1989,920,104.7042,926.3018,111.8694,925.49,108.3642,919.1882,101.1989,920" style="stroke: #A80036; stroke-width: 1.0;"/><path d="M216.316,931.0069 C226.507,946.894 238.383,965.4052 247.539,979.6784 " fill="none" style="stroke: #A80036; stroke-width: 1.0;"/><polygon fill="#A80036" points="209.255,920,209.1281,927.21,215.7347,930.1002,215.8616,922.8902,209.255,920" style="stroke: #A80036; stroke-width: 1.0;"/><path d="M309.363,931.0069 C299.022,946.894 286.972,965.4052 277.681,979.6784 " fill="none" style="stroke: #A80036; stroke-width: 1.0;"/><polygon fill="#A80036" points="316.528,920,309.9023,922.8461,309.9812,930.0568,316.6069,927.2107,316.528,920" style="stroke: #A80036; stroke-width: 1.0;"/><path d="M414.249,926.036 C380.851,942.975 339.297,964.0501 308.122,979.8617 " fill="none" style="stroke: #A80036; stroke-width: 1.0;"/><polygon fill="#A80036" points="426.15,920,418.9896,919.1465,415.4477,925.4278,422.6081,926.2813,426.15,920" style="stroke: #A80036; stroke-width: 1.0;"/></g></svg>